<svg width="943" height="207" viewBox="0 0 943 207" fill="none" xmlns="http://www.w3.org/2000/svg">
<path fill-rule="evenodd" clip-rule="evenodd" d="M92.1206 6.31203L148.228 29.5614L100.449 49.3566C99.9405 48.3572 99.2742 47.463 98.5028 46.674C96.8722 45.0434 94.698 43.9388 92.2959 43.6583L92.1206 6.31203ZM122.874 13.2904L90.7705 0L58.6844 13.2904L26.5807 26.5807L13.2903 58.6844L0 90.7706L13.2903 122.874L26.5807 154.96L58.6844 168.251L90.7705 181.541L122.874 168.251L154.96 154.96L168.251 122.874L181.541 90.7706L168.251 58.6844L154.96 26.5807L122.874 13.2904ZM67.2056 108.164C66.5569 108.006 65.8906 107.918 65.1893 107.918C64.523 107.918 63.8743 107.988 63.2606 108.146L40.6249 67.3284C40.9581 67.0654 41.2737 66.8024 41.5717 66.5043C43.1322 64.9263 44.1492 62.8048 44.2719 60.4202L80.8466 57.0538C81.3551 58.8071 82.2843 60.3676 83.5468 61.63C84.213 62.2963 84.9494 62.8749 85.7735 63.3308L67.2056 108.164ZM70.7649 110.215C70.4142 109.864 70.0285 109.549 69.6252 109.268L88.2282 64.3477C89.1224 64.5932 90.0517 64.7334 91.016 64.7334C92.2083 64.7334 93.3479 64.523 94.3999 64.1724L111.425 105.253C110.39 105.814 109.444 106.516 108.62 107.34C106.831 109.146 105.586 111.495 105.165 114.125L72.9741 114.528C72.7111 112.863 71.9046 111.372 70.7649 110.215ZM70.7649 121.366C71.887 120.262 72.6585 118.806 72.9566 117.193L105.043 116.79C105.218 119.894 106.551 122.699 108.62 124.768C109.373 125.522 110.233 126.188 111.162 126.732L91.2264 174.861L69.5025 122.401C69.9584 122.103 70.3792 121.752 70.7649 121.366ZM65.1893 123.681C65.838 123.681 66.4692 123.611 67.0653 123.453L88.3158 174.773L31.981 151.436L60.6832 122.278C61.9631 123.155 63.5236 123.681 65.1893 123.681ZM57.2992 115.791C57.2992 117.509 57.8603 119.105 58.7896 120.402L30.1049 149.543L6.68024 92.9973L57.4921 114.055C57.3694 114.616 57.2992 115.195 57.2992 115.791ZM59.6136 110.215C59.1928 110.636 58.8246 111.092 58.5266 111.6L6.78543 90.1569L29.4737 67.381C31.0166 68.5382 32.9278 69.222 35.0142 69.222C36.1714 69.222 37.2761 69.0116 38.293 68.6258L60.8234 109.233C60.3851 109.514 59.9818 109.847 59.6136 110.215ZM150.752 55.8966C150.209 55.353 149.578 54.9147 148.859 54.6166L152.436 34.3831L173.528 85.3177L151.576 63.2782C152.155 62.3664 152.488 61.2793 152.488 60.1046C152.488 58.4565 151.822 56.9661 150.752 55.8966ZM146.544 66.066C147.702 66.066 148.771 65.7328 149.7 65.1542L174.826 90.3848L127.959 109.812C127.433 108.9 126.784 108.076 126.048 107.34C125.171 106.481 124.172 105.727 123.085 105.148L144.896 65.838C145.405 65.9783 145.966 66.066 146.544 66.066ZM142.336 64.3126C142.406 64.4003 142.477 64.4704 142.564 64.5406L120.577 104.166C119.543 103.886 118.456 103.728 117.334 103.728C116.141 103.728 114.984 103.903 113.88 104.236L96.802 62.9976C97.4157 62.6119 97.9768 62.1385 98.5028 61.63C99.695 60.4202 100.624 58.9299 101.133 57.2467L140.636 60.8936C140.811 62.2261 141.425 63.4184 142.336 64.3126ZM142.336 55.8966C141.67 56.5453 141.179 57.3519 140.881 58.2461L101.589 54.6166V54.1432C101.589 53.3718 101.501 52.6003 101.343 51.8639L150.209 31.6303L146.229 54.1608C144.703 54.2309 143.336 54.8796 142.336 55.8966ZM80.4433 54.1432V54.4238L44.0264 57.7727C43.6232 56.0895 42.7465 54.5816 41.5717 53.3893C39.8885 51.7061 37.5741 50.6716 35.0142 50.6716H34.7337L31.3848 31.6479L80.6537 52.0568C80.5135 52.723 80.4433 53.4244 80.4433 54.1432ZM83.5468 46.674C82.7227 47.4981 82.0213 48.4624 81.5129 49.532L33.3135 29.5614L89.4555 6.31203L89.6308 43.6583C87.2638 43.9739 85.1423 45.0609 83.5468 46.674ZM25.7391 59.9468C25.7391 62.0333 26.4229 63.962 27.5976 65.5049L8.13551 85.0371L29.1405 34.3305L32.1037 51.145C30.7186 51.6009 29.4737 52.3724 28.4567 53.3893C26.7735 55.0725 25.7391 57.3869 25.7391 59.9468ZM129.66 116.054C129.66 114.721 129.449 113.441 129.046 112.231L174.738 93.3129L151.454 149.525L126.802 123.944C128.59 121.805 129.66 119.052 129.66 116.054ZM117.334 128.38C120.174 128.38 122.804 127.415 124.891 125.802L149.595 151.419L94.3298 174.317L113.599 127.801C114.774 128.169 116.036 128.38 117.334 128.38ZM315.093 62.1209C315.093 67.6264 309.868 72.1325 303.486 72.1325H257.057V42.0627H303.486C309.868 42.0627 315.093 46.5863 315.093 52.0918V62.1209ZM326.7 52.0918C326.35 40.9581 315.9 32.0511 303.486 32.0511H245.45V102.202H257.057V82.1616H303.486C316.478 82.1616 326.7 72.7287 326.7 62.1209V52.0918ZM335.993 102.202H347.583L405.618 61.2092V102.202H417.225V47.6734H405.618L347.583 87.6671V47.6734H335.993V102.202ZM498.475 57.7025V47.6734H428.832V102.202H440.44V57.7025H498.475ZM504.279 102.202H515.886L573.904 47.4104V102.202H585.511V33.8746H573.904L515.886 87.6671V33.8746H504.279V102.202ZM608.725 47.6383H597.118V102.202H608.725L608.813 79.6368H666.831L666.761 102.202H678.368V47.6383H666.761L666.831 69.6077H608.813L608.725 47.6383ZM765.422 57.6499V47.6383H684.172V57.6499H718.993V102.202H730.6V57.6499H765.422ZM782.832 57.6499H852.457V47.6383H771.225V102.202H852.457V92.1732H782.832L782.902 79.6368H840.938V69.6077H782.902L782.832 57.6499ZM884.964 47.6383C871.955 47.6383 861.75 55.0199 861.75 65.838V102.202H873.357V65.838C873.357 60.3325 878.582 57.6499 884.964 57.6499H931.393V102.202H943V47.6383H884.964ZM423.344 148.035L386.542 141.249C385.753 143.809 383.614 145.79 379.686 146.264C375.776 146.72 371.2 144.388 370.394 140.899L351.405 152.506C351.51 152.751 351.58 152.997 351.633 153.26L351.65 153.312L406.197 168.689C407.073 167.62 408.476 166.831 410.159 166.638C410.166 166.638 410.173 166.638 410.179 166.637C410.186 166.637 410.193 166.636 410.199 166.635C410.209 166.633 410.219 166.631 410.229 166.629C410.241 166.627 410.253 166.624 410.265 166.622C410.276 166.621 410.288 166.62 410.3 166.62L423.344 148.035ZM252.584 150.44C252.611 150.432 252.761 150.411 253.27 150.349C254.445 150.209 257.356 150.77 258.653 151.98L313.463 133.535C313.392 133.061 313.427 132.605 313.568 132.167L255.515 131.816C255.269 133.499 253.849 134.955 251.85 135.498L252.584 150.44ZM252.585 150.445L252.586 150.472C252.667 150.453 252.631 150.45 252.603 150.447C252.596 150.447 252.589 150.446 252.585 150.445ZM248.186 155.942C247.923 154.417 249.115 151.875 251.236 150.91L250.623 135.709C247.765 135.919 245.205 134.306 244.784 131.904C244.363 129.519 246.432 127.223 249.36 126.872C252.288 126.521 254.936 128.117 255.462 130.466L314.269 130.887C315.023 130.01 316.198 129.379 317.618 129.204C320.178 128.888 322.58 130.273 323.088 132.307L370.849 137.182C371.919 135.042 374.005 133.447 377.354 133.044C380.721 132.64 384.525 134.218 386.016 136.796L430.533 130.414L430.532 130.41C430.497 130.305 430.463 130.201 430.446 130.08C430.375 129.66 430.375 129.239 430.428 128.836L430.27 128.818H430.446C430.779 126.802 432.707 125.136 435.302 124.838C438.283 124.487 441.053 126.048 441.702 128.38C459.27 127.696 476.839 127.012 494.425 126.328C494.741 125.311 495.81 124.487 497.178 124.33C499.001 124.119 500.684 125.136 500.93 126.591C500.965 126.784 500.982 126.977 500.965 127.17C502.939 128.023 504.914 128.876 506.889 129.729L506.917 129.741L506.925 129.744C513.465 132.569 520.011 135.396 526.546 138.234C527.195 137.848 527.949 137.585 528.79 137.48C530.596 137.269 532.332 137.883 533.367 138.987L587.703 126.556C588.159 125.031 589.456 123.839 591.753 123.558C594.05 123.295 596.662 124.61 597.206 126.609C614.508 128.475 631.811 130.356 649.114 132.237C657.989 133.202 666.863 134.167 675.738 135.13C676.141 134.411 676.685 133.903 678.017 133.745C678.911 133.639 680.009 133.998 680.705 134.638L760.175 130.563C760.493 129.471 761.678 128.66 763.09 128.66C764.573 128.66 765.805 129.555 766.046 130.731L838.116 141.63C838.545 140.69 839.639 140.022 840.92 140.022C842.018 140.022 842.979 140.512 843.501 141.244L915.792 131.55C915.766 131.42 915.753 131.286 915.753 131.15C915.753 129.775 917.095 128.66 918.751 128.66C920.407 128.66 921.75 129.775 921.75 131.15C921.75 132.525 920.407 133.64 918.751 133.64C917.764 133.64 916.889 133.244 916.343 132.633L843.912 142.346C843.917 142.401 843.919 142.456 843.919 142.512C843.919 143.887 842.576 145.001 840.92 145.001C839.366 145.001 838.088 144.019 837.937 142.761L765.959 131.874C765.586 132.896 764.442 133.64 763.09 133.64C762.031 133.64 761.1 133.184 760.566 132.495L716.555 147.261C716.647 147.499 716.696 147.753 716.696 148.017C716.696 149.392 715.354 150.507 713.698 150.507C712.042 150.507 710.7 149.392 710.7 148.017C710.7 147.77 710.744 147.531 710.824 147.305L681.259 136.828C680.92 137.685 679.993 138.358 678.859 138.497C677.281 138.672 675.913 137.883 675.545 136.691L610.496 147.298C610.584 149.122 609.023 150.752 606.674 151.033C604.307 151.313 601.817 149.069 601.642 148C601.599 147.76 601.572 147.611 601.557 147.524L552.846 144.651L505.331 160.466L505.335 160.476C505.421 160.701 505.507 160.926 505.541 161.185C505.874 163.043 504.261 164.779 501.947 165.06C499.632 165.34 497.493 164.043 497.16 162.167C497.02 161.378 497.23 160.589 497.704 159.94L462.567 150.332C462.111 150.91 461.374 151.331 460.463 151.436C459.2 151.594 458.026 151.068 457.447 150.226L415.682 168.566C416.173 169.127 416.506 169.811 416.647 170.53C417.085 173.072 414.911 175.422 411.79 175.79C408.651 176.158 405.758 174.405 405.32 171.88C405.197 171.196 405.268 170.53 405.495 169.916L351.563 154.715C351.107 156.258 349.546 157.485 347.495 157.731C345.706 157.941 343.988 157.345 342.954 156.258L304.836 188.958C304.968 189.109 305.08 189.214 305.18 189.306C305.532 189.633 305.72 189.809 305.993 191.325C306.326 193.253 303.942 197.093 300.242 197.549C296.525 197.987 292.861 194.551 292.563 192.92C292.489 192.491 292.449 192.25 292.431 192.123L217.257 203.458C217.257 203.493 217.134 202.757 217.274 203.563C217.414 204.387 216.187 206.631 214.223 206.877C212.242 207.105 210.419 206.018 210.138 204.422C209.858 202.827 211.997 201.249 213.206 201.108C214.064 201.007 214.133 201.033 214.26 201.082C214.31 201.101 214.368 201.123 214.486 201.143L249.518 158.379L249.46 158.321C249.422 158.284 249.385 158.247 249.349 158.212C248.772 157.644 248.442 157.321 248.186 155.942ZM759.103 131.752L681.664 135.74L711.517 146.309C712.063 145.827 712.839 145.527 713.698 145.527C714.536 145.527 715.294 145.813 715.838 146.273L759.103 131.752ZM292.493 192.114C292.493 192.181 292.479 192.16 292.463 192.118L292.493 192.114ZM601.589 147.526C601.589 147.562 601.582 147.551 601.573 147.525L601.589 147.526ZM255.006 160.115C253.796 160.255 251.85 159.957 250.64 159.239L216.012 201.74C216.222 201.88 216.398 202.038 216.555 202.195L292.72 190.729C293.124 189.519 294.018 188.449 295.263 187.713L257.233 159.449C256.567 159.782 256.198 159.957 255.006 160.115ZM260.143 155.118C260.178 156.451 259.565 157.696 258.513 158.607L296.718 187.047C297.227 186.889 297.91 186.748 298.314 186.696C298.734 186.643 298.857 186.643 299.12 186.643L308.062 153.803L260.143 155.118ZM259.512 153.032C259.652 153.26 259.775 153.505 259.88 153.768L308.588 152.471L315.198 136.147C314.672 135.796 314.234 135.358 313.936 134.867L259.512 153.032ZM494.67 128.222C494.565 128.047 494.495 127.871 494.425 127.678L445.805 129.554L483.133 134.604L494.67 128.222ZM498.107 129.642C497.265 129.747 496.441 129.572 495.775 129.221L485.483 134.92L524.81 140.232C524.951 139.882 525.144 139.549 525.389 139.25L500.421 128.45C499.913 129.081 499.089 129.537 498.107 129.642ZM555.704 143.704L601.887 146.211C602.115 145.703 602.501 145.247 602.992 144.861L594.821 130.887C594.723 130.934 594.648 130.975 594.582 131.011C594.302 131.162 594.172 131.233 593.138 131.36C591.841 131.518 589.298 130.852 588.316 129.572L555.704 143.704ZM498.949 158.87C499.475 158.572 500.088 158.362 500.755 158.292C501.596 158.187 502.42 158.292 503.139 158.572L525.266 143.388C525.091 143.16 524.968 142.915 524.845 142.652L463.163 149.069L498.949 158.87ZM530.158 145.282C528.72 145.44 527.353 145.089 526.336 144.405L504.77 159.203L549.813 144.212L534.278 141.986C533.945 143.651 532.315 145.019 530.158 145.282ZM587.598 127.965C587.598 127.958 587.598 127.951 587.598 127.941L534.138 140.232C534.191 140.355 534.226 140.495 534.261 140.636L552.653 143.266L587.685 128.345C587.665 128.284 587.651 128.212 587.639 128.152C587.63 128.107 587.623 128.069 587.615 128.047L587.614 128.044L587.614 128.044L587.614 128.041C587.603 127.995 587.599 127.981 587.598 127.965ZM597.276 127.959C597.153 128.73 596.75 129.432 596.154 130.01L604.395 144.142C604.451 144.123 604.482 144.109 604.502 144.096C604.508 144.092 604.513 144.089 604.518 144.085L604.523 144.08L604.532 144.073L604.533 144.072C604.575 144.033 604.598 144.012 605.412 143.914C606.586 143.774 609.321 144.563 610.11 145.983L671.004 135.972L597.276 127.959ZM457.64 147.667C458.096 147.158 458.797 146.79 459.621 146.702C460.13 146.632 460.603 146.685 461.059 146.807L481.152 135.691L441.702 130.361C441.211 132.202 439.352 133.692 436.915 133.99C436.319 134.061 435.706 134.043 435.144 133.973L426.132 146.772L457.64 147.667ZM462.444 147.649L462.445 147.65C462.497 147.702 462.532 147.737 462.567 147.789L523.671 141.425L483.519 136.007L462.444 147.649ZM386.7 138.672C386.77 138.987 386.805 139.496 386.787 139.917L424.274 146.72L433.531 133.552C432.514 133.131 431.673 132.483 431.112 131.676L386.559 138.076C386.629 138.269 386.665 138.374 386.7 138.672ZM412.158 166.69C413.017 166.831 413.824 167.129 414.508 167.567L456.798 148.982L425.221 148.087L412.158 166.69ZM342.112 152.804C342.603 151.349 344.146 150.174 346.127 149.946C347.863 149.735 349.529 150.297 350.563 151.313L370.271 139.513C370.271 139.163 370.323 138.812 370.394 138.479L323.123 133.71C322.79 135.358 321.16 136.743 318.986 136.989C318.179 137.094 317.39 137.024 316.671 136.813L310.324 152.488L342.112 152.804ZM341.989 154.417L341.986 154.403C341.97 154.32 341.954 154.236 341.954 154.136L309.798 153.821L300.803 186.766C301.89 186.976 302.907 187.38 303.731 187.976L342.165 155.066C342.095 154.855 342.024 154.645 341.989 154.417Z" fill="white"/>
</svg>
